<svg xmlns="http://www.w3.org/2000/svg" viewBox="0 0 462.13 449.78"><defs><style>.cls-1{fill:none;stroke:#000;stroke-linecap:round;stroke-linejoin:round;stroke-opacity:0.9;stroke-width:26px;}</style></defs><g id="Layer_2" data-name="Layer 2"><g id="Layer_3" data-name="Layer 3"><path class="cls-1" d="M178,436.78,180.05,391a3.87,3.87,0,0,0-.38-2.29c-.89-1.34-2.91-1-4.46-.6-14.15,3.91-30.24,4.22-42.6-3.71-23.85-15.3-24.48-53.8-49.2-67.64,11.59-4,23.87,4.58,31.13,14.47s12.28,21.8,22,29.3a35.42,35.42,0,0,0,30.13,6.12,14.27,14.27,0,0,0,6.27-3.08c4.54-4.3,3.35-11.6,3.93-17.82a27.92,27.92,0,0,1,11-19.61l4.23-5.58c-32.92-1.83-63.23-23.83-77.77-53.41s-13.93-65.54-1.09-95.9c1.65-3.89,3.53-7.86,3.53-12.09,0-3.52-1.28-6.88-2.29-10.24a69.17,69.17,0,0,1,2.74-47.08c23.2.54,41.82,21.67,65,23.2,9.47.63,18.79-2.12,28.16-3.61,21.38-3.38,43.2-.16,64.52,3.56a23.86,23.86,0,0,0,8.24.47c2.75-.49,5.23-1.93,7.66-3.31a219.08,219.08,0,0,1,53.42-21.42c1.78-.45,3.87-.82,5.27.37s1.39,3,1.41,4.67l.28,38.55a88.28,88.28,0,0,0,1.06,15.76c1.77,9.35,6.48,17.83,9.89,26.71,11.28,29.32,7.74,63.79-8.71,90.56s-45.27,45.41-76.34,50.08l-5.7,1.46c13.78,11.88,19,31,20,49.19.72,12.94-.3,25.94-.28,38.89"/><path class="cls-1" d="M336.92,420.22c70.61-34.21,98-97.07,110.64-167.89C456,204.93,434.33,55.16,278.47,17.64,208.4.77,117,31.4,67.53,84.88S1.59,211.43,20.8,281.67C40,351.76,83.41,406.81,178,436.78"/></g></g></svg>